<?xml version="1.0" standalone="no"?>
<!DOCTYPE svg PUBLIC "-//W3C//DTD SVG 20010904//EN"
 "http://www.w3.org/TR/2001/REC-SVG-20010904/DTD/svg10.dtd">
<svg version="1.0" xmlns="http://www.w3.org/2000/svg"
 width="960.000000pt" height="960.000000pt" viewBox="0 0 960.000000 960.000000"
 preserveAspectRatio="xMidYMid meet">

<g transform="translate(0.000000,960.000000) scale(0.100000,-0.100000)"
fill="#000000" stroke="none">
<path d="M4450 9464 c-19 -3 -98 -11 -175 -20 -607 -66 -1208 -257 -1745 -553
-1120 -618 -1935 -1676 -2229 -2891 -45 -187 -49 -203 -76 -360 -38 -223 -55
-448 -55 -714 0 -403 38 -707 140 -1116 346 -1385 1384 -2557 2745 -3099 716
-286 1520 -393 2280 -306 650 76 1302 294 1845 617 784 467 1400 1129 1790
1923 308 628 460 1282 460 1977 0 278 -16 488 -55 718 -27 157 -30 173 -76
360 -160 661 -469 1271 -920 1815 -107 129 -435 457 -564 564 -605 502 -1255
820 -2009 986 -358 78 -540 97 -966 100 -195 2 -371 1 -390 -1z m702 -605
c174 -35 252 -58 461 -135 81 -30 280 -139 372 -203 28 -19 64 -44 80 -55 84
-58 241 -194 328 -286 258 -271 415 -505 541 -805 46 -111 96 -250 96 -269 0
-23 29 -46 57 -46 72 0 426 -170 566 -271 143 -104 244 -237 288 -380 30 -95
32 -272 5 -364 -66 -228 -257 -469 -583 -740 -17 -14 -43 -34 -138 -106 -120
-92 -304 -213 -312 -205 -4 3 16 52 44 109 28 56 66 140 84 185 22 58 39 86
54 92 69 26 202 247 266 442 25 76 32 115 36 213 6 140 -2 177 -71 338 -58
137 -69 153 -120 176 -22 11 -59 36 -81 56 -134 122 -393 244 -665 311 -344
86 -771 119 -1210 94 -288 -17 -829 -84 -870 -109 -9 -4 -49 -14 -90 -20 -41
-7 -82 -15 -90 -18 -24 -10 -148 -43 -230 -62 -41 -9 -84 -22 -95 -28 -11 -6
-40 -14 -65 -17 -42 -6 -44 -6 -20 7 14 8 50 20 80 27 30 7 71 18 90 26 66 25
235 72 282 79 26 3 50 11 54 16 3 6 13 8 22 4 8 -3 18 -1 22 5 3 5 19 12 36
14 53 7 94 18 100 27 3 5 16 9 29 9 13 0 29 8 34 18 9 15 12 15 20 2 9 -13 13
-13 28 4 18 18 17 18 -37 12 -57 -8 -107 -18 -200 -42 -30 -8 -75 -19 -100
-24 -25 -5 -79 -18 -120 -30 -41 -12 -104 -30 -140 -39 -36 -10 -72 -20 -80
-24 -8 -3 -62 -20 -120 -37 -58 -18 -136 -43 -175 -57 -38 -14 -95 -33 -125
-43 -30 -10 -123 -46 -207 -79 -84 -34 -157 -61 -162 -61 -18 0 -81 92 -92
134 -10 41 -32 66 -56 66 -26 0 -12 -53 37 -136 27 -47 50 -89 50 -94 0 -20
-24 -21 -61 -5 -38 18 -49 40 -30 61 6 5 -1 24 -18 50 -15 22 -31 53 -35 70
-4 16 -20 56 -36 89 -22 45 -39 65 -69 82 -34 20 -42 31 -56 80 -9 32 -21 71
-28 88 -19 50 -9 180 24 290 17 55 34 108 39 117 17 31 11 97 -12 138 -13 21
-19 42 -16 46 13 13 38 -18 52 -65 16 -57 40 -61 44 -8 3 33 -2 43 -35 76 -35
35 -38 43 -38 94 0 31 3 59 7 62 4 4 4 14 1 23 -4 13 -3 14 6 6 6 -6 15 -30
19 -55 9 -45 11 -43 27 26 7 29 8 29 17 9 9 -20 12 -21 29 -6 10 8 16 18 14
22 -8 13 35 54 59 55 14 1 26 5 26 8 0 4 8 15 19 26 10 10 23 25 27 32 5 8 26
23 47 33 33 17 43 32 38 60 -1 5 5 6 14 3 19 -8 47 2 39 14 -3 5 2 12 10 15 9
3 16 12 16 19 0 7 15 18 33 25 17 8 52 29 76 49 25 19 56 36 70 37 40 2 40 3
36 24 -4 21 16 41 23 22 2 -7 22 -12 43 -12 24 0 38 4 34 10 -3 6 0 10 8 10 7
0 26 14 42 30 19 19 31 26 36 19 4 -8 19 -3 45 15 30 20 51 26 95 26 39 0 59
-4 62 -14 8 -21 45 -27 43 -7 -1 13 8 15 57 13 35 -3 63 1 72 8 12 10 16 9 21
-4 6 -15 57 -46 76 -46 4 0 8 7 8 15 0 14 19 19 72 19 10 -1 20 7 23 17 7 20
64 59 88 59 9 0 21 -8 26 -17 6 -10 11 -12 11 -5 0 7 13 12 29 12 15 0 44 11
63 24 22 15 40 21 49 16 15 -10 44 24 34 40 -11 17 -25 11 -18 -7 6 -16 5 -16
-10 -5 -9 8 -21 11 -27 7 -15 -9 -60 3 -60 15 0 6 9 10 20 10 11 0 20 5 20 10
0 6 18 10 40 10 33 0 40 -3 40 -20 0 -31 53 -27 70 5 8 16 22 25 37 25 27 0
30 -16 7 -42 -13 -14 -14 -21 -5 -32 18 -21 5 -36 -32 -36 -37 -1 -67 -20 -67
-44 0 -17 12 -21 24 -8 4 4 17 8 29 9 81 9 97 8 97 -4 0 -7 5 -13 10 -13 6 0
10 9 10 20 0 11 6 20 14 20 8 0 18 -9 21 -20 3 -11 13 -20 21 -20 8 0 14 -7
14 -17 0 -9 3 -13 6 -10 4 4 20 -3 37 -15 l30 -22 -6 32 c-6 30 5 44 17 23 7
-11 76 -20 76 -9 0 10 -81 61 -97 61 -6 0 -16 12 -23 25 -9 20 -8 28 3 39 12
12 20 11 57 -8 46 -24 92 -18 98 12 3 17 -50 41 -140 62 -38 9 -48 15 -48 31
-1 26 -23 56 -42 56 -26 0 -163 54 -193 77 -34 25 -32 28 40 69 45 26 59 29
145 29 93 0 97 -1 158 -39 34 -21 79 -54 99 -72 22 -20 44 -32 53 -29 9 3 25
-2 36 -11 10 -8 14 -13 7 -10 -13 7 -28 -28 -18 -44 8 -13 55 -13 55 0 0 18
29 10 44 -12 14 -20 14 -24 0 -40 -15 -16 -14 -20 16 -58 17 -22 35 -40 39
-40 4 0 36 -27 71 -61 36 -33 81 -72 100 -86 19 -15 43 -35 53 -45 12 -12 26
-17 38 -13 12 4 37 -4 65 -19 67 -38 81 -22 43 49 -12 22 -21 53 -21 70 0 16
-7 38 -16 48 -18 20 -7 51 19 53 8 1 20 2 27 3 9 1 12 13 10 38 -3 34 0 38 30
46 53 16 41 39 -50 99 -46 29 -87 55 -93 57 -5 2 -30 19 -55 37 -49 35 -104
59 -245 106 -49 16 -94 34 -99 39 -13 12 29 12 96 -2z m-672 -284 c0 -19 -11
-19 -36 0 -18 14 -18 14 9 15 17 0 27 -5 27 -15z m219 -88 c8 -11 7 -18 -7
-30 -16 -15 -21 -15 -37 -3 -16 12 -17 16 -6 30 16 20 35 21 50 3z m2176 -59
c22 -5 72 -14 110 -18 39 -4 86 -12 105 -17 46 -13 47 -13 66 -13 8 0 12 -4 9
-10 -3 -5 3 -10 15 -10 12 0 18 5 15 10 -8 13 5 13 25 0 13 -8 13 -10 -1 -10
-9 0 -20 -7 -23 -16 -8 -21 -7 -32 2 -17 9 15 82 29 82 15 0 -5 -9 -12 -20
-15 -24 -6 -26 -20 -5 -41 17 -16 20 -46 5 -46 -17 0 -40 -71 -40 -126 0 -30
-4 -54 -9 -54 -4 0 -20 -11 -35 -25 -20 -19 -27 -34 -26 -62 1 -63 -1 -73 -11
-73 -5 0 -9 4 -9 8 0 4 -19 9 -42 11 -23 1 -47 6 -53 10 -17 13 -90 31 -124
31 -17 0 -31 5 -31 10 0 6 -18 10 -41 10 -44 0 -128 18 -144 31 -6 4 -30 11
-54 15 -38 6 -56 21 -181 148 -77 78 -171 166 -210 196 -38 30 -70 58 -70 62
0 3 8 9 18 12 31 9 636 -4 677 -16z m-4985 -1361 c0 -7 -9 -38 -20 -70 -11
-31 -20 -68 -20 -81 0 -14 -5 -37 -11 -53 -6 -15 -19 -78 -30 -139 -17 -105
-21 -114 -56 -151 -21 -22 -47 -50 -58 -64 -33 -40 -169 -231 -195 -274 -13
-22 -27 -42 -30 -45 -13 -10 -100 -217 -125 -295 -40 -126 -48 -189 -49 -355
0 -130 3 -169 22 -244 54 -208 207 -428 405 -579 41 -32 77 -57 80 -57 3 0 28
-16 57 -35 105 -71 321 -171 510 -236 47 -17 94 -34 105 -38 11 -5 40 -17 64
-27 25 -10 65 -19 90 -20 102 -2 91 19 91 -175 l0 -171 -47 6 c-27 3 -84 8
-128 12 -108 8 -365 47 -516 79 -68 15 -144 31 -169 36 -83 17 -359 107 -460
150 -259 112 -459 234 -593 364 -60 58 -131 144 -152 185 -10 19 -21 37 -25
40 -12 8 -90 165 -90 180 0 8 -7 35 -16 60 -9 25 -18 52 -21 60 -6 16 -15 115
-15 165 -1 59 24 290 31 295 5 3 12 21 16 40 3 19 15 54 26 77 10 24 19 49 19
56 0 7 7 22 15 33 8 10 15 26 15 35 0 9 9 26 20 39 11 13 20 26 20 30 0 11 76
139 97 164 10 12 24 32 31 46 7 14 29 43 48 65 20 22 43 51 52 65 87 127 477
490 677 628 33 23 78 55 100 72 22 16 47 33 55 37 8 4 44 28 79 55 63 47 101
61 101 35z m4175 -137 c198 -30 324 -53 355 -62 19 -6 44 -12 55 -14 71 -9
386 -128 410 -154 16 -18 15 -22 -23 -77 -25 -36 -44 -80 -51 -116 -13 -61
-35 -74 -37 -21 0 16 -4 52 -8 79 -7 55 -3 65 33 81 14 6 21 13 15 16 -5 3
-23 -1 -41 -11 -75 -38 -141 -71 -190 -93 l-53 -23 6 -50 c3 -27 10 -62 16
-77 5 -15 8 -33 5 -40 -6 -17 -35 54 -43 104 -7 43 -15 45 -70 22 -48 -21
-140 -43 -176 -44 -25 0 -33 -9 -29 -33 1 -4 -8 -2 -18 5 -15 9 -35 8 -93 -5
-40 -9 -104 -20 -143 -24 l-70 -8 -1 -245 c0 -273 -1 -280 -13 -280 -4 0 -9
100 -10 223 -3 260 -8 303 -36 299 -11 -1 -84 -5 -161 -9 l-142 -6 -7 -51 c-4
-28 -8 -59 -8 -68 -1 -9 -5 -14 -9 -12 -4 3 -8 34 -8 68 l0 63 -77 6 c-234 19
-293 20 -294 6 -17 -174 -28 -244 -38 -247 -6 -2 -11 -21 -11 -43 0 -22 -5
-39 -11 -39 -7 0 -9 13 -5 38 17 101 17 103 -7 102 -45 -4 -67 0 -67 13 0 23
34 46 65 44 16 -1 30 3 30 8 0 6 3 15 6 20 3 6 5 37 5 70 l-1 59 -35 8 c-19 5
-66 13 -105 18 -138 21 -180 28 -201 35 -19 6 -22 2 -28 -51 -4 -32 -11 -62
-15 -68 -5 -6 -13 -27 -18 -46 l-9 -35 -72 4 c-68 3 -74 5 -111 42 -24 25 -48
39 -64 39 -13 0 -40 6 -58 14 -65 26 -98 27 -116 6 -17 -19 -72 -28 -74 -12 0
4 -2 16 -3 27 -2 16 9 27 45 45 41 20 46 26 38 42 -8 15 -6 18 11 18 25 0 26
18 3 36 -17 13 -17 13 2 13 40 0 80 -50 44 -55 -5 -1 -13 -2 -19 -3 -5 0 -10
-8 -10 -16 0 -10 10 -15 34 -15 39 0 85 -15 177 -58 36 -17 78 -34 92 -37 15
-4 30 -11 33 -16 3 -5 14 -9 25 -9 15 0 19 5 15 18 -3 10 1 44 9 75 8 32 15
59 15 61 0 2 -26 7 -57 10 -32 4 -95 19 -140 33 l-82 26 -20 -24 c-17 -21 -22
-22 -38 -11 -10 7 -26 15 -35 18 -10 4 -18 14 -18 23 -1 21 -34 61 -52 61 -8
0 -19 5 -26 12 -9 9 -12 9 -12 0 0 -18 -18 -15 -51 9 -16 11 -29 17 -29 13 0
-5 -5 -3 -12 4 -7 7 -22 12 -35 12 -13 0 -34 10 -49 22 l-26 23 24 6 23 7 -23
1 c-12 1 -38 -5 -56 -13 -30 -12 -42 -32 -110 -173 -43 -87 -81 -165 -87 -173
-5 -8 -12 -23 -15 -32 -4 -10 -11 -18 -16 -18 -6 0 -7 8 -3 18 4 9 10 28 15
42 4 14 17 43 29 65 11 22 21 43 21 47 0 7 52 123 71 160 15 29 10 46 -13 50
-13 2 -23 10 -23 18 0 19 71 43 105 36 85 -17 113 -25 123 -35 14 -14 30 -15
22 -1 -9 15 11 12 24 -4 6 -7 32 -19 58 -26 29 -9 48 -20 51 -32 5 -21 22 -24
22 -4 0 8 2 21 5 29 3 7 -3 24 -13 37 -15 19 -28 24 -57 22 -21 -2 -54 3 -74
9 -20 7 -49 12 -66 11 l-30 -2 29 16 c16 9 43 21 60 26 58 17 220 46 233 41 7
-3 13 -17 12 -32 -1 -34 15 -92 45 -165 13 -33 22 -65 19 -73 -3 -7 -1 -13 3
-13 16 0 32 54 32 105 0 28 -2 42 -5 33 -6 -25 -23 -23 -23 3 0 11 -4 18 -8
15 -15 -9 -31 10 -40 50 -10 43 0 84 20 84 7 0 103 14 213 31 110 16 228 30
262 29 33 -1 64 3 67 9 22 35 891 44 1101 11z m-2371 -259 c19 -7 19 -8 -2
-13 -31 -8 -55 -68 -42 -103 7 -18 7 -33 -1 -47 -16 -30 -7 -176 14 -213 9
-16 30 -46 46 -65 30 -35 30 -35 107 -33 89 3 110 16 119 72 3 20 9 42 14 50
17 32 171 56 171 27 0 -8 -11 -52 -26 -98 -43 -142 -47 -158 -43 -163 3 -2 47
1 98 7 l92 11 31 -31 31 -31 -11 -70 c-17 -98 -16 -102 23 -143 46 -47 78 -55
115 -28 36 25 63 25 117 -1 60 -29 66 -25 101 63 9 23 19 28 61 34 36 5 58 14
78 35 30 30 73 39 73 14 0 -8 -9 -19 -20 -25 -25 -13 -26 -40 -2 -40 23 0 42
19 42 42 0 28 23 21 72 -22 42 -37 47 -39 76 -28 26 10 34 9 50 -5 23 -21 40
-22 61 -3 31 27 59 29 72 4 25 -47 51 -50 47 -5 -2 26 0 32 17 32 17 0 20 -6
17 -35 -2 -19 -5 -43 -8 -52 -4 -13 3 -21 23 -28 15 -6 48 -33 73 -61 42 -47
50 -52 95 -54 92 -5 165 -55 165 -113 0 -14 5 -41 12 -59 11 -31 10 -35 -20
-66 -39 -41 -43 -67 -6 -38 31 25 67 27 88 6 8 -8 17 -15 20 -15 21 0 84 -52
82 -67 -1 -13 6 -18 26 -18 15 -1 30 -4 34 -8 4 -4 22 -7 40 -7 32 0 64 -21
64 -41 0 -6 15 -25 34 -42 27 -26 33 -38 29 -60 l-5 -27 -108 0 c-59 0 -202
-3 -318 -7 l-211 -6 -9 -26 c-5 -14 -10 -91 -12 -171 -2 -146 -16 -362 -18
-303 l-2 32 -32 -17 c-18 -9 -34 -20 -36 -24 -2 -5 -28 -8 -57 -8 -30 0 -57
-4 -60 -10 -3 -5 0 -10 7 -10 9 0 8 -4 -3 -15 -8 -8 -34 -16 -57 -18 -23 -1
-42 -5 -42 -9 0 -5 -9 -8 -19 -8 -12 0 -21 8 -24 23 -2 12 -6 -14 -7 -58 -2
-44 -7 72 -11 258 -5 241 -11 342 -19 352 -10 12 -54 15 -253 15 l-241 0 -48
47 c-26 26 -48 55 -48 64 0 10 11 31 25 47 24 29 24 29 5 47 -11 10 -20 24
-20 32 0 22 49 113 65 119 7 3 16 15 19 27 3 12 19 30 36 39 27 16 30 22 30
69 0 55 -38 153 -67 176 -22 17 -53 -2 -53 -32 0 -19 -5 -25 -23 -25 -12 0
-31 6 -42 14 -11 7 -33 16 -50 20 -16 4 -40 17 -53 29 -13 12 -37 26 -55 32
-20 6 -38 22 -47 41 -22 44 -99 117 -116 110 -8 -3 -41 3 -72 14 -31 11 -64
20 -73 20 -9 0 -38 20 -65 45 -52 47 -78 54 -110 30 -25 -19 -75 -19 -100 0
-10 8 -24 15 -31 15 -7 0 -63 20 -124 44 -132 51 -184 91 -176 133 3 15 -1 43
-8 61 -17 39 -99 147 -123 162 -16 9 -16 11 2 25 11 8 28 15 37 15 10 0 20 4
23 9 3 4 27 14 53 21 27 7 53 16 58 20 6 4 62 24 125 45 63 21 126 44 140 51
28 15 46 16 74 5z m3434 -197 c2 -43 0 -95 -4 -114 -7 -32 -9 -30 -15 30 -12
112 -10 172 4 168 8 -3 13 -32 15 -84z m-4098 16 c-8 -5 -24 -10 -35 -10 -17
0 -17 2 -5 10 8 5 24 10 35 10 17 0 17 -2 5 -10z m1537 -6 c-3 -3 -12 -4 -19
-1 -8 3 -5 6 6 6 11 1 17 -2 13 -5z m-1616 -24 c-21 -18 -61 -28 -61 -15 0 8
54 34 70 34 10 0 8 -6 -9 -19z m178 -22 c31 -34 42 -78 18 -78 -22 0 -90 77
-84 94 10 25 33 19 66 -16z m1051 22 c0 -5 -4 -10 -10 -10 -5 0 -10 5 -10 10
0 6 5 10 10 10 6 0 10 -4 10 -10z m343 3 c-7 -2 -19 -2 -25 0 -7 3 -2 5 12 5
14 0 19 -2 13 -5z m37 -3 c0 -5 -2 -10 -4 -10 -3 0 -8 5 -11 10 -3 6 -1 10 4
10 6 0 11 -4 11 -10z m-1680 -28 c0 -10 -45 -32 -63 -32 -17 1 32 40 49 40 8
0 14 -4 14 -8z m-105 -52 c-18 -20 -55 -28 -55 -12 0 8 43 29 64 31 5 1 1 -8
-9 -19z m3465 10 c0 -5 -2 -10 -4 -10 -3 0 -8 5 -11 10 -3 6 -1 10 4 10 6 0
11 -4 11 -10z m-3530 -39 c0 -11 -59 -36 -66 -28 -3 3 7 12 23 21 33 18 43 19
43 7z m3543 -57 c3 -27 1 -57 -4 -65 -6 -9 -9 2 -9 36 0 28 -3 61 -6 75 -5 17
-3 22 3 15 6 -5 13 -33 16 -61z m-1991 14 c-3 -13 -12 -28 -20 -34 -8 -6 -13
-17 -10 -25 6 -17 -14 -60 -36 -78 -14 -12 -16 -10 -16 8 0 12 5 29 10 39 6 9
19 38 30 65 20 48 54 68 42 25z m-1632 2 c0 -11 -33 -30 -52 -30 -7 1 -3 9 11
20 25 22 41 26 41 10z m200 -10 c0 -5 -4 -10 -10 -10 -5 0 -10 5 -10 10 0 6 5
10 10 10 6 0 10 -4 10 -10z m2000 -4 c60 -3 145 -44 145 -71 0 -16 -8 -20 -50
-22 -221 -13 -239 -15 -250 -30 -9 -12 -14 -13 -19 -4 -5 7 0 21 9 31 9 10 14
23 11 28 -11 17 36 21 61 5 33 -22 38 -12 14 28 -23 37 -18 54 13 44 11 -4 41
-8 66 -9z m-2294 -41 c-11 -8 -27 -15 -35 -15 -11 0 -10 4 5 15 10 8 26 14 34
14 11 0 10 -3 -4 -14z m4031 -27 c-3 -7 -5 -2 -5 12 0 14 2 19 5 13 2 -7 2
-19 0 -25z m-4101 -13 c-26 -19 -42 -19 -26 0 7 8 20 15 29 15 13 -1 13 -3 -3
-15z m2147 -2 c4 -2 7 -13 7 -24 0 -22 -37 -26 -89 -8 -34 12 -33 11 -25 34 6
14 15 16 53 10 25 -4 49 -9 54 -12z m-1673 -3 c0 -5 -2 -10 -4 -10 -3 0 -8 5
-11 10 -3 6 -1 10 4 10 6 0 11 -4 11 -10z m3329 -47 l-1 -48 -10 34 c-5 18 -7
40 -4 47 10 27 16 14 15 -33z m-744 -108 c-4 -74 -10 -135 -14 -135 -7 0 -4
172 5 238 11 87 16 30 9 -103z m-875 43 c0 -36 -15 -67 -26 -55 -7 6 14 87 23
87 1 0 3 -15 3 -32z m-229 -32 c47 -20 17 -31 -39 -15 -26 7 -58 19 -72 26
-23 12 -20 13 27 8 29 -3 67 -12 84 -19z m2177 3 c-2 -6 -8 -10 -13 -10 -5 0
-11 4 -13 10 -2 6 4 11 13 11 9 0 15 -5 13 -11z m-2068 -45 c0 -2 -7 -4 -15
-4 -8 0 -15 4 -15 10 0 5 7 7 15 4 8 -4 15 -8 15 -10z m50 -14 c0 -5 -7 -10
-16 -10 -8 0 -12 5 -9 10 3 6 10 10 16 10 5 0 9 -4 9 -10z m60 -4 c0 -14 -29
-31 -38 -22 -2 3 -2 12 1 21 8 19 37 20 37 1z m81 -16 c10 0 19 -4 19 -10 0
-11 -33 -13 -68 -3 -18 4 -20 8 -10 14 7 5 19 7 26 4 8 -3 22 -5 33 -5z m359
-20 c0 -5 -4 -10 -10 -10 -5 0 -10 5 -10 10 0 6 5 10 10 10 6 0 10 -4 10 -10z
m-475 -97 c-3 -18 -10 -33 -15 -33 -13 0 -12 37 2 85 12 39 12 39 16 11 2 -16
1 -44 -3 -63z m-975 63 c0 -8 -6 -16 -14 -19 -10 -4 -12 0 -9 14 6 22 23 26
23 5z m2580 4 c-20 -13 -40 -13 -40 0 0 6 12 10 28 10 21 0 24 -2 12 -10z
m-1120 -21 c0 -5 -4 -9 -10 -9 -5 0 -10 7 -10 16 0 8 5 12 10 9 6 -3 10 -10
10 -16z m150 -29 c0 -5 -4 -10 -10 -10 -5 0 -10 5 -10 10 0 6 5 10 10 10 6 0
10 -4 10 -10z m280 0 c0 -5 -7 -10 -16 -10 -8 0 -12 5 -9 10 3 6 10 10 16 10
5 0 9 -4 9 -10z m-1434 -47 c-10 -10 -19 5 -10 18 6 11 8 11 12 0 2 -7 1 -15
-2 -18z m1824 -38 c0 -25 -4 -45 -10 -45 -5 0 -10 20 -10 45 0 25 5 45 10 45
6 0 10 -20 10 -45z m-2320 25 c0 -5 8 -10 18 -11 14 0 14 -2 -3 -9 -30 -13
-35 -12 -35 10 0 11 5 20 10 20 6 0 10 -4 10 -10z m94 -36 c17 -6 22 -24 8
-24 -5 0 -17 7 -28 15 -19 15 -8 20 20 9z m361 -74 c-4 -12 -9 -19 -12 -17 -3
3 -2 15 2 27 4 12 9 19 12 17 3 -3 2 -15 -2 -27z m-145 -20 c0 -5 -4 -10 -9
-10 -6 0 -13 5 -16 10 -3 6 1 10 9 10 9 0 16 -4 16 -10z m630 -57 c0 -37 -14
-72 -24 -63 -5 6 13 100 20 100 2 0 4 -17 4 -37z m-500 2 c0 -8 -7 -15 -15
-15 -16 0 -20 12 -8 23 11 12 23 8 23 -8z m87 -21 c-3 -3 -12 -4 -19 -1 -8 3
-5 6 6 6 11 1 17 -2 13 -5z m-899 -954 l2 -390 77 112 c42 62 161 238 265 391
l189 277 244 0 c134 0 250 3 259 6 33 13 13 -21 -87 -144 -57 -70 -154 -190
-217 -267 -62 -77 -137 -170 -166 -206 l-54 -66 111 -204 c62 -112 181 -332
266 -489 85 -157 166 -304 179 -327 25 -43 22 -54 -12 -48 -10 2 -123 4 -249
4 l-230 1 -190 381 c-105 209 -193 383 -196 385 -4 2 -48 -47 -98 -108 l-91
-113 0 -272 0 -273 -230 0 -230 0 0 868 c0 478 2 871 4 873 2 2 105 3 228 2
l223 -2 3 -391z m1762 -480 l0 -869 -235 -3 -235 -3 0 875 0 875 235 -3 235
-3 0 -869z m1465 841 c199 -43 334 -137 387 -269 22 -56 23 -63 26 -512 3
-497 0 -547 -48 -646 -59 -122 -171 -199 -366 -251 l-99 -27 -462 -4 -463 -4
0 872 0 872 463 -5 c428 -4 469 -6 562 -26z m-1057 -792 c2 -37 -1 -59 -10
-66 -11 -8 -172 -42 -330 -69 l-38 -6 0 76 c0 55 4 76 13 76 19 0 236 30 287
39 72 14 75 12 78 -50z m-918 -138 l0 -89 -82 -11 c-115 -15 -262 -30 -331
-33 l-58 -3 -55 103 -56 102 74 1 c71 2 410 14 476 17 l32 2 0 -89z m-1047
-116 c9 -20 17 -40 17 -44 0 -5 -27 -11 -59 -13 -38 -2 -57 1 -53 7 14 25 64
85 71 85 4 0 15 -16 24 -35z m5537 -859 c0 -21 -109 -236 -195 -386 -84 -147
-205 -332 -294 -450 l-56 -74 -3 312 -2 312 -40 0 -40 0 -1 -212 c0 -133 -4
-205 -9 -193 -5 11 -25 96 -45 189 -49 228 -44 216 -105 216 l-50 0 0 -330 0
-330 40 0 40 0 1 228 c0 125 3 220 6 212 4 -8 27 -109 53 -225 l46 -210 37 -3
c20 -2 37 -5 37 -8 0 -3 -50 -63 -111 -135 l-111 -129 -3337 -2 c-1835 -2
-3346 -2 -3358 0 -13 2 -63 52 -131 130 -175 204 -313 394 -457 632 -72 118
-235 433 -235 454 0 15 398 16 4160 16 3506 0 4160 -2 4160 -14z"/>
<path d="M5801 8423 c0 -8 138 -99 164 -109 24 -9 44 3 39 23 -9 33 -78 73
-123 71 -23 -1 -47 4 -53 10 -14 14 -28 16 -27 5z"/>
<path d="M4408 8403 c6 -2 18 -2 25 0 6 3 1 5 -13 5 -14 0 -19 -2 -12 -5z"/>
<path d="M4396 8363 c-3 -7 -9 -13 -13 -12 -4 1 -23 1 -40 0 -38 -1 -47 -30
-10 -32 17 -1 15 -3 -9 -8 -40 -10 -56 -20 -49 -32 12 -18 66 -9 91 16 14 14
34 25 44 25 15 0 20 7 20 28 0 30 -25 41 -34 15z"/>
<path d="M4123 8294 c-12 -8 -50 -19 -84 -24 -35 -5 -65 -14 -67 -20 -2 -5 -9
-10 -16 -10 -7 0 -22 -10 -33 -22 -47 -53 -51 -98 -9 -98 15 0 27 -9 34 -25
15 -32 26 -31 72 5 20 16 50 34 65 40 21 8 25 13 16 24 -12 14 -5 46 9 46 4 0
11 -10 15 -22 6 -21 7 -20 15 10 10 41 20 53 20 23 0 -17 5 -22 22 -19 26 4
37 28 12 28 -14 0 -15 3 -6 12 10 10 17 10 31 1 17 -11 19 -9 19 21 0 29 -3
32 -23 28 -12 -2 -26 1 -29 7 -10 15 -37 13 -63 -5z m-123 -124 c0 -5 -4 -10
-10 -10 -5 0 -10 5 -10 10 0 6 5 10 10 10 6 0 10 -4 10 -10z"/>
<path d="M4390 8239 c-11 -8 -12 -12 -2 -16 6 -2 12 -11 12 -20 0 -17 31 -14
38 5 2 7 -5 12 -18 12 -16 0 -20 4 -16 15 6 18 6 18 -14 4z"/>
<path d="M4294 8186 c-3 -8 -19 -18 -35 -21 -16 -4 -31 -11 -34 -16 -4 -5 -19
-9 -35 -9 -15 0 -30 -4 -32 -8 -1 -5 -31 -23 -65 -42 -64 -34 -72 -50 -25 -50
15 0 45 -9 67 -20 50 -26 55 -25 55 5 0 14 -5 25 -11 25 -5 0 -7 5 -4 10 4 6
11 8 16 5 5 -4 9 -1 9 4 0 6 -4 11 -10 11 -5 0 -10 4 -10 9 0 4 13 8 30 7 16
-1 30 -4 30 -8 0 -5 7 -8 15 -8 18 0 20 17 3 22 -9 3 -9 6 0 12 7 4 12 2 12
-3 0 -6 14 -11 30 -11 41 0 38 27 -5 44 -13 6 -16 10 -7 13 7 3 18 1 25 -5 24
-18 47 -22 47 -7 0 8 -7 15 -16 15 -9 0 -18 9 -21 20 -6 23 -21 26 -29 6z"/>
<path d="M4400 8170 c0 -5 5 -10 11 -10 5 0 7 5 4 10 -3 6 -8 10 -11 10 -2 0
-4 -4 -4 -10z"/>
<path d="M4400 8074 c0 -14 3 -14 15 -4 8 7 15 14 15 16 0 2 -7 4 -15 4 -8 0
-15 -7 -15 -16z"/>
<path d="M6390 8032 c0 -6 20 -35 45 -65 27 -34 45 -66 45 -81 0 -27 56 -136
69 -136 20 0 19 17 -4 55 -17 30 -21 45 -13 53 7 7 -5 30 -40 76 -50 67 -102
116 -102 98z"/>
<path d="M4285 8010 c-3 -5 3 -10 14 -10 12 0 21 5 21 10 0 6 -6 10 -14 10 -8
0 -18 -4 -21 -10z"/>
<path d="M4405 7979 c-4 -6 -5 -13 -2 -16 7 -7 27 6 27 18 0 12 -17 12 -25 -2z"/>
<path d="M4327 7933 c-9 -8 -9 -53 0 -53 3 0 15 7 25 16 14 14 20 14 33 4 19
-16 19 -34 1 -50 -22 -18 -8 -42 23 -38 35 4 42 51 12 70 -12 7 -21 23 -21 37
0 21 -2 22 -17 10 -13 -11 -17 -11 -20 -1 -5 13 -25 16 -36 5z"/>
<path d="M6574 7815 c4 -17 21 -50 37 -74 16 -25 29 -51 29 -59 0 -10 7 -12
24 -8 37 9 60 -24 53 -75 -5 -36 -2 -45 18 -61 28 -22 105 -172 105 -205 0
-26 -12 -30 -30 -8 -15 19 -50 20 -50 2 0 -8 7 -28 16 -45 8 -17 21 -59 28
-93 14 -68 24 -77 87 -78 l35 -1 -4 63 c-2 34 -8 70 -13 79 -5 9 -9 31 -9 48
0 32 -139 319 -170 350 -8 9 -28 33 -44 55 -16 21 -50 61 -74 89 -42 47 -45
48 -38 21z"/>
<path d="M4955 7729 c-4 -6 -5 -12 -2 -15 7 -7 37 7 37 17 0 13 -27 11 -35 -2z"/>
<path d="M4045 7644 c-11 -8 -45 -27 -75 -42 l-55 -27 38 -3 c23 -2 48 3 62
12 28 19 62 21 67 5 5 -14 110 -18 114 -4 5 15 -82 75 -108 75 -13 0 -32 -8
-43 -16z m95 -34 c0 -5 -9 -10 -20 -10 -11 0 -20 5 -20 10 0 6 9 10 20 10 11
0 20 -4 20 -10z"/>
<path d="M4135 7520 c-36 -14 -46 -37 -52 -117 l-6 -78 24 17 c17 12 23 24 21
45 -5 56 8 92 38 108 51 26 29 47 -25 25z"/>
<path d="M4254 7509 c15 -11 26 -31 26 -44 0 -31 28 -55 41 -34 5 8 9 24 9 37
0 21 4 24 40 26 8 1 15 7 15 15 0 10 -20 15 -78 17 l-79 3 26 -20z"/>
<path d="M5091 7456 c-23 -13 -23 -13 -2 -19 14 -3 21 0 21 8 0 7 6 16 13 18
6 3 8 6 2 6 -5 0 -21 -6 -34 -13z"/>
<path d="M4830 7400 c0 -11 6 -20 14 -20 9 0 12 7 9 20 -3 11 -9 20 -14 20 -5
0 -9 -9 -9 -20z"/>
<path d="M4749 7294 c-11 -13 -9 -14 17 -8 40 9 54 24 22 24 -14 0 -31 -7 -39
-16z"/>
<path d="M4690 7265 c0 -8 5 -15 10 -15 6 0 10 7 10 15 0 8 -4 15 -10 15 -5 0
-10 -7 -10 -15z"/>
<path d="M4636 7169 c-8 -42 0 -50 9 -9 4 17 5 34 2 36 -2 3 -7 -10 -11 -27z"/>
<path d="M4600 7120 c0 -5 5 -10 10 -10 6 0 10 5 10 10 0 6 -4 10 -10 10 -5 0
-10 -4 -10 -10z"/>
<path d="M4618 7013 c7 -3 16 -2 19 1 4 3 -2 6 -13 5 -11 0 -14 -3 -6 -6z"/>
<path d="M4878 6883 c6 -2 18 -2 25 0 6 3 1 5 -13 5 -14 0 -19 -2 -12 -5z"/>
<path d="M5862 6821 l1 -56 12 35 c12 36 45 55 45 26 0 -9 -7 -16 -15 -16 -9
0 -15 -9 -15 -25 0 -14 -4 -25 -10 -25 -5 0 -10 -9 -10 -20 0 -11 5 -20 10
-20 6 0 10 8 10 17 0 12 3 14 10 7 7 -7 6 -22 -5 -48 -12 -29 -13 -45 -5 -77
6 -22 10 -76 9 -120 -1 -49 3 -85 10 -92 8 -8 11 -8 11 1 0 7 14 12 33 13 17
0 70 7 117 14 47 8 94 16 105 18 17 2 20 9 17 51 -1 27 -9 63 -17 79 -8 17
-15 40 -15 51 0 12 -7 32 -16 44 -12 18 -19 20 -29 12 -22 -18 -35 -2 -35 40
l0 39 -82 3 c-54 2 -83 7 -86 16 -2 6 3 12 11 12 17 0 77 56 77 71 0 5 -31 8
-70 7 l-70 -2 2 -55z"/>
<path d="M5641 6841 c-9 -6 -4 -10 18 -13 20 -3 30 -1 28 6 -5 14 -29 18 -46
7z"/>
<path d="M5727 6843 c-13 -12 -7 -41 9 -47 24 -9 26 -3 11 27 -8 15 -17 24
-20 20z"/>
<path d="M5145 6827 c-4 -10 -5 -21 -1 -24 10 -10 18 4 13 24 -4 17 -4 17 -12
0z"/>
<path d="M6000 6815 c0 -8 5 -15 10 -15 6 0 10 7 10 15 0 8 -4 15 -10 15 -5 0
-10 -7 -10 -15z"/>
<path d="M6100 6820 c-7 -44 -7 -100 -1 -100 14 0 23 68 12 88 -6 9 -11 15
-11 12z"/>
<path d="M6253 6803 c9 -2 25 -2 35 0 9 3 1 5 -18 5 -19 0 -27 -2 -17 -5z"/>
<path d="M6184 6756 c0 -24 4 -42 9 -39 10 6 9 83 -2 83 -5 0 -8 -20 -7 -44z"/>
<path d="M6367 6787 c-11 -29 -8 -65 6 -70 6 -2 9 -7 5 -11 -12 -14 -48 28
-49 59 0 16 -3 24 -6 18 -2 -7 -21 -14 -41 -14 l-37 -1 30 -9 c29 -8 28 -8 -7
-6 -21 2 -38 1 -39 -3 -5 -35 -11 -55 -21 -61 -6 -4 -8 -18 -4 -35 4 -16 8
-42 10 -59 4 -58 19 -117 30 -121 22 -8 225 59 237 78 4 7 0 17 -8 23 -9 7
-13 17 -9 24 4 6 3 18 -4 26 -6 7 -10 22 -8 32 2 12 -2 17 -15 15 -21 -4 -33
23 -19 41 7 8 7 18 2 27 -7 12 -10 11 -16 -5 -7 -16 -10 -11 -19 25 -8 34 -13
41 -18 27z m-53 -59 c-3 -4 0 -8 5 -8 6 0 11 -4 11 -10 0 -5 -20 -10 -45 -10
-45 0 -66 19 -22 21 21 0 21 1 2 9 -16 7 -12 9 17 8 20 -1 34 -6 32 -10z"/>
<path d="M4872 6755 c0 -16 2 -22 5 -12 2 9 2 23 0 30 -3 6 -5 -1 -5 -18z"/>
<path d="M5137 6763 c-4 -3 -7 -21 -7 -40 l0 -33 -54 0 c-46 0 -58 -4 -74 -25
-11 -14 -25 -25 -31 -25 -6 0 -11 -11 -11 -24 0 -27 -32 -55 -65 -58 -11 0 0
-4 25 -8 l45 -7 -42 -1 c-24 -1 -43 -6 -43 -11 0 -6 19 -12 43 -14 l42 -4 -42
-1 c-31 -1 -43 -6 -43 -17 0 -11 11 -15 40 -15 22 0 40 5 40 10 0 6 5 10 11
10 5 0 8 -4 4 -9 -7 -13 58 -35 125 -43 24 -3 25 0 32 67 4 41 3 74 -3 80 -11
11 -12 45 0 45 8 0 25 120 18 127 -2 1 -7 0 -10 -4z"/>
<path d="M5680 6760 c0 -5 5 -10 10 -10 6 0 10 5 10 10 0 6 -4 10 -10 10 -5 0
-10 -4 -10 -10z"/>
<path d="M5560 6743 c0 -13 5 -23 10 -23 13 0 13 11 0 30 -8 12 -10 11 -10 -7z"/>
<path d="M4740 6736 c0 -8 4 -17 9 -20 10 -7 23 19 14 28 -11 11 -23 6 -23 -8z"/>
<path d="M4834 6726 c3 -14 2 -26 -3 -26 -5 0 -11 -10 -14 -22 -3 -13 -12 -49
-20 -80 -8 -32 -12 -58 -9 -58 2 0 -1 -7 -8 -15 -11 -13 -8 -15 16 -16 16 -1
33 0 39 1 5 1 17 2 25 3 9 0 16 10 16 21 1 89 5 106 20 106 13 0 14 3 4 15 -6
8 -9 19 -5 25 3 5 1 10 -4 10 -6 0 -11 -11 -11 -24 0 -18 -5 -23 -23 -23 -20
0 -23 4 -19 28 2 16 9 29 14 29 14 0 5 43 -11 48 -10 3 -12 -2 -7 -22z m6
-181 c0 -8 -6 -15 -14 -15 -17 0 -28 14 -19 24 12 12 33 6 33 -9z"/>
<path d="M5780 6736 c0 -13 -6 -16 -22 -12 -13 3 -17 3 -10 0 6 -3 12 -17 12
-30 0 -20 -5 -24 -30 -24 -20 0 -30 -5 -30 -15 0 -8 -4 -15 -10 -15 -5 0 -10
-7 -10 -16 0 -10 -6 -14 -14 -11 -8 3 -29 2 -45 -3 -35 -10 -39 -6 -50 52 -8
40 -9 37 -12 -37 -2 -44 -4 -113 -5 -154 l-1 -73 148 4 c91 2 153 8 160 15 17
17 -28 263 -53 288 -3 3 -11 -15 -17 -40 -6 -25 -15 -45 -20 -45 -13 0 5 91
20 101 11 6 11 11 1 21 -9 9 -12 8 -12 -6z"/>
<path d="M6540 6729 c0 -5 14 -9 31 -9 16 0 28 4 25 9 -3 5 -17 9 -31 9 -14 0
-25 -4 -25 -9z"/>
<path d="M5191 6641 c2 -45 1 -81 -3 -81 -14 0 -9 -126 5 -129 6 -1 83 -5 170
-8 l157 -5 0 35 c0 42 -15 87 -30 87 -5 0 -10 -9 -10 -20 0 -11 -5 -20 -10
-20 -14 0 -29 40 -25 71 1 13 0 16 -2 7 -3 -13 -15 -18 -44 -18 -33 0 -39 -3
-39 -21 0 -21 -1 -21 -25 5 -14 15 -25 32 -25 37 0 6 -4 8 -10 4 -14 -9 -50
18 -50 37 0 10 -4 18 -9 18 -6 0 -11 17 -13 37 -2 27 -8 39 -22 41 -17 4 -18
-3 -15 -77z"/>
<path d="M6500 6681 c0 -22 5 -43 10 -46 6 -3 10 -15 10 -26 0 -22 28 -38 39
-22 3 6 23 13 44 17 22 4 37 13 37 21 0 8 6 15 13 15 23 0 50 37 42 57 -6 16
-8 16 -16 -4 -12 -32 -29 -29 -30 5 -1 22 -3 23 -6 6 -5 -26 -71 -44 -83 -24
-6 9 -9 9 -14 1 -10 -16 -26 -4 -26 20 0 10 -4 19 -10 19 -5 0 -10 -18 -10
-39z m107 -47 c-3 -3 -12 -4 -19 -1 -8 3 -5 6 6 6 11 1 17 -2 13 -5z"/>
<path d="M5660 6655 c-10 -12 -10 -15 4 -15 9 0 16 7 16 15 0 8 -2 15 -4 15
-2 0 -9 -7 -16 -15z"/>
<path d="M5355 6639 c-4 -6 -5 -12 -2 -15 2 -3 7 2 10 11 7 17 1 20 -8 4z"/>
<path d="M4525 6600 l-20 -9 20 0 c11 -1 31 -4 45 -7 24 -6 25 -6 5 9 -23 19
-23 19 -50 7z"/>
<path d="M4710 6599 c-12 -7 -12 -11 -2 -17 8 -5 10 -16 5 -28 -6 -18 -6 -18
10 -2 29 28 18 68 -13 47z"/>
<path d="M5491 6574 c0 -11 3 -14 6 -6 3 7 2 16 -1 19 -3 4 -6 -2 -5 -13z"/>
<path d="M4618 6563 c7 -3 16 -2 19 1 4 3 -2 6 -13 5 -11 0 -14 -3 -6 -6z"/>
<path d="M4815 5831 c-8 -15 3 -31 21 -31 9 0 14 7 12 17 -4 20 -24 28 -33 14z"/>
<path d="M5675 5359 c-4 -6 -4 -13 -1 -16 8 -8 36 5 36 17 0 13 -27 13 -35 -1z"/>
<path d="M5885 5210 c4 -6 11 -8 16 -5 14 9 11 15 -7 15 -8 0 -12 -5 -9 -10z"/>
<path d="M5860 5141 c0 -12 5 -21 10 -21 6 0 10 6 10 14 0 8 -4 18 -10 21 -5
3 -10 -3 -10 -14z"/>
<path d="M5912 5140 c0 -14 2 -19 5 -12 2 6 2 18 0 25 -3 6 -5 1 -5 -13z"/>
<path d="M5956 5144 c-9 -23 -8 -24 18 -24 31 0 53 25 30 34 -26 10 -42 7 -48
-10z"/>
<path d="M5895 4808 c-3 -13 -4 -300 -3 -638 l3 -615 105 -3 c142 -4 228 12
287 51 97 66 106 125 101 655 -4 413 -6 431 -56 484 -53 58 -175 88 -359 88
-67 0 -73 -2 -78 -22z m453 -344 c3 -44 11 -39 -133 -79 -27 -8 -96 -28 -153
-44 -56 -17 -109 -31 -117 -31 -11 0 -15 12 -15 48 l0 48 198 51 c108 28 202
50 207 49 6 -2 11 -20 13 -42z"/>
<path d="M1815 2843 c-38 -9 -84 -53 -95 -91 -8 -24 -10 -118 -8 -267 3 -221
4 -231 26 -262 42 -59 151 -68 212 -16 47 39 52 75 48 324 l-3 226 -28 36
c-35 46 -92 65 -152 50z m71 -97 c18 -13 19 -28 19 -235 0 -192 -2 -222 -17
-237 -23 -23 -66 -11 -78 22 -6 14 -10 115 -10 225 0 186 1 200 20 219 24 24
39 25 66 6z"/>
<path d="M3541 2833 c-19 -10 -44 -31 -55 -46 -20 -27 -21 -41 -21 -280 0
-247 0 -253 23 -284 43 -61 159 -68 213 -13 44 43 51 91 47 324 -3 229 -9 257
-63 292 -38 25 -104 28 -144 7z m99 -95 c19 -20 20 -34 20 -219 0 -109 -4
-209 -10 -223 -14 -37 -58 -46 -82 -16 -16 20 -18 44 -18 231 0 196 1 210 20
229 26 26 44 25 70 -2z"/>
<path d="M5412 2830 c-42 -26 -62 -74 -62 -149 0 -83 11 -106 90 -186 38 -38
74 -83 79 -98 25 -67 2 -137 -44 -137 -29 0 -45 26 -45 74 l0 36 -46 0 -46 0
4 -60 c5 -74 29 -110 87 -129 80 -25 157 12 179 87 17 55 15 145 -3 190 -9 21
-48 68 -90 107 -71 67 -75 74 -75 114 0 52 14 81 40 81 24 0 40 -28 40 -69 0
-30 1 -31 45 -31 l45 0 0 40 c0 49 -19 98 -49 124 -32 29 -108 32 -149 6z"/>
<path d="M7843 2843 c-36 -7 -80 -56 -93 -102 -7 -29 -10 -116 -8 -255 3 -229
8 -251 61 -290 37 -27 119 -28 164 -1 58 34 63 57 63 314 0 249 -5 276 -55
314 -25 18 -94 29 -132 20z m77 -103 c19 -19 20 -33 20 -228 0 -172 -3 -211
-16 -230 -19 -28 -45 -28 -70 -1 -17 19 -19 41 -22 193 -2 94 -1 190 3 213 10
69 46 92 85 53z"/>
<path d="M1370 2838 c0 -2 -1 -149 -1 -328 l0 -325 43 0 43 0 5 115 c3 80 10
124 21 145 l17 30 12 -45 c6 -25 24 -90 40 -145 l27 -100 47 -3 c35 -2 46 0
46 11 0 8 -15 66 -34 128 -19 63 -44 148 -56 189 l-22 75 56 125 c31 69 56
126 56 128 0 2 -23 2 -51 0 l-52 -3 -51 -138 -51 -137 -3 140 -3 140 -44 0
c-25 0 -45 -1 -45 -2z"/>
<path d="M2080 2560 c0 -302 4 -333 52 -364 69 -45 179 -21 211 47 15 30 17
74 17 316 l0 281 -45 0 -45 0 0 -273 c0 -253 -1 -275 -18 -290 -25 -23 -48
-21 -66 5 -14 19 -16 64 -16 290 l0 268 -45 0 -45 0 0 -280z"/>
<path d="M2515 2828 c-5 -15 -95 -617 -95 -635 0 -9 15 -13 44 -13 l44 0 6 53
c17 137 12 127 65 127 l47 0 13 -90 13 -90 42 0 c24 0 45 2 48 5 3 3 -1 40 -8
83 -6 42 -26 169 -44 282 -17 113 -34 223 -38 245 l-8 40 -62 3 c-44 2 -64 -1
-67 -10z m78 -185 c4 -43 10 -104 13 -136 l7 -58 -34 3 c-19 2 -33 6 -33 11 1
4 7 66 14 137 7 71 16 127 20 125 4 -2 10 -39 13 -82z"/>
<path d="M2940 2509 l0 -330 43 3 42 3 3 328 2 327 -45 0 -45 0 0 -331z"/>
<path d="M3090 2820 c0 -10 14 -101 30 -202 54 -323 70 -423 70 -431 0 -4 26
-7 57 -5 l58 3 7 45 c4 25 21 128 37 230 17 102 35 221 41 265 6 44 13 88 16
98 5 14 -2 17 -44 17 -59 0 -52 24 -82 -265 -12 -110 -24 -208 -28 -218 -4
-10 -20 91 -36 225 -16 134 -30 246 -33 251 -2 4 -24 7 -49 7 -37 0 -44 -3
-44 -20z"/>
<path d="M3832 2513 l3 -328 45 0 45 0 3 305 c1 168 0 315 -3 328 -5 19 -12
22 -50 22 l-45 0 2 -327z"/>
<path d="M4020 2510 l0 -330 45 0 45 0 0 151 0 152 32 -7 c18 -3 37 -11 43
-17 5 -5 12 -69 15 -142 l5 -132 43 -3 42 -3 0 113 c0 138 -7 181 -32 207 -19
21 -19 21 1 43 26 28 34 71 29 157 -6 109 -48 141 -188 141 l-80 0 0 -330z
m160 230 c16 -16 20 -33 20 -82 0 -71 -17 -98 -62 -98 l-28 0 0 100 0 100 25
0 c14 0 34 -9 45 -20z"/>
<path d="M4380 2510 l0 -330 110 0 c109 0 111 0 120 26 23 58 17 64 -65 64
l-75 0 0 105 0 105 65 0 65 0 0 45 0 45 -65 0 -65 0 0 90 0 90 70 0 70 0 0 45
0 45 -115 0 -115 0 0 -330z"/>
<path d="M4810 2510 l0 -332 95 4 c106 4 134 17 170 79 18 31 20 52 20 254 0
204 -2 223 -21 255 -29 50 -65 64 -171 68 l-93 4 0 -332z m172 223 c16 -15 18
-35 18 -217 0 -229 -4 -246 -66 -246 l-34 0 0 240 0 240 32 0 c17 0 40 -7 50
-17z"/>
<path d="M5180 2510 l0 -330 45 0 45 0 0 330 0 330 -45 0 -45 0 0 -330z"/>
<path d="M5650 2795 l0 -45 50 0 50 0 2 -282 3 -283 42 -3 43 -3 2 283 3 283
48 3 47 3 0 45 0 44 -145 0 -145 0 0 -45z"/>
<path d="M5992 2514 l3 -329 45 0 45 0 3 149 3 148 31 -6 c18 -3 36 -12 40
-19 4 -6 8 -51 8 -98 0 -47 3 -107 6 -133 l7 -46 43 0 43 0 -5 113 c-7 161
-10 186 -30 208 -17 18 -16 20 6 44 31 33 41 160 17 217 -24 58 -55 72 -169
76 l-98 4 2 -328z m145 240 c30 -8 46 -55 41 -114 -6 -60 -21 -80 -59 -80
l-29 0 0 100 c0 105 1 106 47 94z"/>
<path d="M6355 2827 c-3 -7 -4 -154 -3 -327 l3 -315 43 -3 42 -3 0 330 0 331
-40 0 c-23 0 -43 -5 -45 -13z"/>
<path d="M6540 2510 l0 -330 88 0 c136 0 181 37 190 159 6 90 -4 137 -34 168
l-24 24 23 30 c19 26 22 43 22 112 -1 130 -43 167 -190 167 l-75 0 0 -330z
m168 223 c17 -24 15 -114 -4 -141 -10 -14 -25 -22 -45 -22 l-29 0 0 96 0 97
33 -7 c17 -3 38 -14 45 -23z m-4 -258 c20 -21 30 -75 23 -133 -6 -51 -33 -82
-73 -82 -24 0 -24 0 -24 115 l0 115 29 0 c16 0 36 -7 45 -15z"/>
<path d="M6890 2559 c0 -306 4 -332 58 -367 36 -23 130 -22 166 1 56 37 61 65
61 367 l0 275 -47 3 -48 3 -2 -278 -3 -277 -28 -16 c-27 -14 -29 -14 -48 9
-18 22 -19 41 -19 292 l0 269 -45 0 -45 0 0 -281z"/>
<path d="M7230 2796 l0 -45 48 -3 47 -3 3 -283 2 -283 43 3 42 3 3 283 2 282
50 0 50 0 0 45 0 45 -145 0 -145 0 0 -44z"/>
<path d="M7570 2510 l0 -330 45 0 45 0 0 330 0 330 -45 0 -45 0 0 -330z"/>
</g>
</svg>
